HIERARCHY
ROOT Hips
{
 OFFSET 0.000000 0.000000 0.000000
 CHANNELS 6 Xposition Yposition Zposition Yrotation Xrotation Zrotation
 JOINT Chest
 {
  OFFSET 0.000000 9.585900 0.002600
  CHANNELS 3 Yrotation Xrotation Zrotation
  JOINT Chest2
  {
   OFFSET 0.000000 9.601200 -0.005300
   CHANNELS 3 Yrotation Xrotation Zrotation
   JOINT Chest3
   {
    OFFSET 0.000000 9.561800 0.000000
    CHANNELS 3 Yrotation Xrotation Zrotation
    JOINT Chest4
    {
     OFFSET 0.000000 9.552100 0.000000
     CHANNELS 3 Yrotation Xrotation Zrotation
     JOINT Neck
     {
      OFFSET 0.000000 14.453000 0.000000
      CHANNELS 3 Yrotation Xrotation Zrotation
      JOINT Head
      {
       OFFSET 0.000000 8.936500 -0.011300
       CHANNELS 3 Yrotation Xrotation Zrotation
       End Site
       {
        OFFSET 0.000000 17.073600 -0.006000
       }
      }
     }
     JOINT RightCollar
     {
      OFFSET -2.921100 9.558500 0.000000
      CHANNELS 3 Yrotation Xrotation Zrotation
      JOINT RightShoulder
      {
       OFFSET -13.519700 0.000000 0.000000
       CHANNELS 3 Yrotation Xrotation Zrotation
       JOINT RightElbow
       {
        OFFSET 0.000000 -29.696600 0.000000
        CHANNELS 3 Yrotation Xrotation Zrotation
        JOINT RightWrist
        {
         OFFSET 0.000000 -24.004700 0.000000
         CHANNELS 3 Yrotation Xrotation Zrotation
         End Site
         {
          OFFSET 0.000000 -17.728500 0.000000
         }
        }
       }
      }
     }
     JOINT LeftCollar
     {
      OFFSET 2.921100 9.558500 0.000000
      CHANNELS 3 Yrotation Xrotation Zrotation
      JOINT LeftShoulder
      {
       OFFSET 13.519700 0.000000 0.000000
       CHANNELS 3 Yrotation Xrotation Zrotation
       JOINT LeftElbow
       {
        OFFSET 0.000000 -29.696600 0.000000
        CHANNELS 3 Yrotation Xrotation Zrotation
        JOINT LeftWrist
        {
         OFFSET 0.000000 -24.004700 0.000000
         CHANNELS 3 Yrotation Xrotation Zrotation
         End Site
         {
          OFFSET 0.000000 -17.728500 0.000000
         }
        }
       }
      }
     }
    }
   }
  }
 }
 JOINT RightHip
 {
  OFFSET -7.771700 -0.012900 -0.001300
  CHANNELS 3 Yrotation Xrotation Zrotation
  JOINT RightKnee
  {
   OFFSET 0.000000 -40.869800 0.001200
   CHANNELS 3 Yrotation Xrotation Zrotation
   JOINT RightAnkle
   {
    OFFSET 0.000000 -39.717900 0.002100
    CHANNELS 3 Yrotation Xrotation Zrotation
    JOINT RightToe
    {
     OFFSET 0.000000 -4.965400 11.033500
     CHANNELS 3 Yrotation Xrotation Zrotation
     End Site
     {
      OFFSET 0.000000 -1.423100 5.872300
     }
    }
   }
  }
 }
 JOINT LeftHip
 {
  OFFSET 7.771700 -0.012900 -0.001300
  CHANNELS 3 Yrotation Xrotation Zrotation
  JOINT LeftKnee
  {
   OFFSET 0.000000 -40.869800 0.001200
   CHANNELS 3 Yrotation Xrotation Zrotation
   JOINT LeftAnkle
   {
    OFFSET 0.000000 -39.717900 0.002100
    CHANNELS 3 Yrotation Xrotation Zrotation
    JOINT LeftToe
    {
     OFFSET 0.000000 -4.965400 11.033500
     CHANNELS 3 Yrotation Xrotation Zrotation
     End Site
     {
      OFFSET 0.000000 -1.423100 5.872300
     }
    }
   }
  }
 }
}
MOTION
Frames: 5
Frame Time: 0.008333
0.000000 85.388000 0.000000 0.000000 -5.767877 0.000000 0.000000 11.653817 0.000000 0.000000 -5.885947 0.000000 0.000000 -0.000000 0.000000 0.000000 -0.000000 0.000000 0.000000 12.528835 0.000000 0.000000 0.711642 0.000000 0.000000 -0.000000 0.000000 0.000000 0.000000 -90.000000 0.000000 -2.309062 0.000000 0.000000 2.309062 0.000000 0.000000 -0.000000 0.000000 0.000000 -0.000000 90.000000 0.000000 -2.309062 0.000000 0.000000 2.309062 0.000000 0.000000 8.520406 0.000000 0.000000 1.905762 0.000000 -0.000000 -4.658285 0.000000 0.000000 -0.000000 0.000000 0.000000 8.520406 0.000000 0.000000 1.905762 0.000000 -0.000000 -4.658285 0.000000 0.000000 -0.000000 0.000000
-246.644660 60.578307 -78.499331 156.966342 -16.342404 1.541601 4.237948 13.974780 1.320222 0.391157 1.256091 0.113323 0.661363 2.118570 0.196158 4.082182 12.512056 1.542393 3.362527 15.244958 -0.784449 3.724937 -9.673727 -1.593573 5.148902 6.016082 -1.805998 -10.501612 -25.406433 -15.604658 -8.725024 -73.762920 12.349650 -0.785361 -0.247462 -20.972847 -3.520197 -2.006310 -2.814629 31.376893 -11.601504 12.670332 40.552259 -73.279281 -50.670330 -1.904054 -5.429464 11.242119 2.005700 -52.984617 7.177073 -28.243669 70.448857 -26.662877 -3.048724 -5.671644 -1.834405 1.136372 -0.279179 0.697585 10.646758 -52.586560 0.475087 29.375888 66.506284 30.572366 -19.131930 -16.610411 0.945200 -0.756899 0.336583 -0.647593
-246.633789 60.579879 -78.496681 156.977585 -16.270011 1.488614 4.188082 14.034149 1.279064 0.387899 1.259793 0.111593 0.655889 2.124599 0.193166 4.043825 12.536931 1.520632 3.316149 15.116559 -0.732285 3.661860 -9.811611 -1.527218 5.305482 6.150327 -1.658121 -9.419041 -25.106251 -15.372487 -6.661144 -71.398180 9.807014 -0.544654 0.369009 -20.467459 -3.677733 -1.601996 -2.781435 30.443762 -11.046159 12.158639 35.277955 -72.147218 -45.398429 -2.082705 -4.888424 11.280600 1.881288 -53.070969 7.473854 -28.481910 70.395451 -27.118488 -3.094601 -5.611692 -1.721098 1.120855 -0.334051 0.683859 10.506743 -52.652943 0.531751 29.427569 66.453408 30.687767 -19.142503 -16.623875 0.875937 -0.734674 0.368448 -0.609950
-246.637525 60.580850 -78.493262 156.997364 -16.156080 1.500925 4.123146 14.062577 1.173959 0.386094 1.263980 0.110273 0.652710 2.131543 0.190919 4.018661 12.561655 1.503904 3.271658 14.985382 -0.674724 3.599642 -9.952097 -1.455696 5.477077 6.232415 -1.530561 -8.549353 -24.741160 -15.040049 -4.793448 -69.279843 7.583753 -0.442390 0.527324 -20.120502 -3.854277 -1.272129 -2.778326 29.402206 -10.495938 11.681000 30.413155 -71.121488 -40.513083 -2.293610 -4.348014 11.210656 1.898205 -53.198952 7.590437 -28.704871 70.348496 -27.511588 -3.136648 -5.593795 -1.653051 1.104646 -0.368317 0.665711 10.366008 -52.740719 0.493979 29.603354 66.367974 30.860666 -19.050023 -16.602606 0.831766 -0.741491 0.393969 -0.563344
-246.637429 60.582134 -78.485657 157.027031 -16.032708 1.463095 4.072577 14.079123 1.130242 0.385411 1.268621 0.109716 0.651433 2.139172 0.189941 4.004419 12.586016 1.495488 3.227716 14.853791 -0.620324 3.538855 -10.092583 -1.387681 5.631456 6.270979 -1.437356 -7.976949 -24.388532 -14.531828 -3.026425 -67.374197 5.705444 -0.491244 0.228326 -19.900810 -4.033288 -1.021616 -2.807958 28.298597 -9.958149 11.230456 25.746397 -70.252170 -35.846195 -2.523813 -3.839144 11.074552 1.895366 -53.338024 7.725238 -28.912130 70.301449 -27.845043 -3.152150 -5.554935 -1.542849 1.055239 -0.399837 0.637904 10.245393 -52.860374 0.511332 29.625412 66.317551 30.912697 -19.040065 -16.562563 0.776173 -0.686781 0.401223 -0.505056
